# xmcd
#
# Track frame offsets:
#	150
#	16675
#	34751
#	51001
#	70216
#	90080
#	102906
#	118506
#	135287
#	155223
#	170850
#	188337
#	208555
#	228289
#	242890
#	264607
#	283710
#
# Disc length: 4036 seconds
#
# Revision: 1
# Processed by: cddbd v1.5.1PL2 Copyright (c) Steve Scherf et al.
# Submitted via: audiograbber 1.83.01
#
DISCID=de0fc211
DTITLE=Various Artist - ESP486-01
DYEAR=2005
DGENRE=Karaoke
TTITLE0=Big and Rich - Comin' To Your City
TTITLE1=Toby Keith - As Good As I Once Was
TTITLE2=Alan Jackson - USA Today
TTITLE3=Kenny Chesney - Who You'd Be Today
TTITLE4=Brad Paisley - Alcohol
TTITLE5=Nothin' To Lose - Josh Gracin
TTITLE6=George Strait - She Let Herself Go
TTITLE7=Andy Griggs - If Heaven
TTITLE8=Montgomery Gentry - Something To Be Proud Of
TTITLE9=Brooks and Dunn - Play Something Country
TTITLE10=Billy Dean - Let Them Be Little
TTITLE11=Rascal Flatts - Fast Cars And Freedom
TTITLE12=Bobby Pinson - Don't Ask Me How I Know
TTITLE13=Joe Nichols - Tequila Makes Her Clothes Fall Off
TTITLE14=Tim McGraw - Drugs Or Jesus
TTITLE15=Van Zant - Help Somebody
TTITLE16=Trace Adkins - Honky Tonk Badonkadonk
EXTD=
EXTT0=
EXTT1=
EXTT2=
EXTT3=
EXTT4=
EXTT5=
EXTT6=
EXTT7=
EXTT8=
EXTT9=
EXTT10=
EXTT11=
EXTT12=
EXTT13=
EXTT14=
EXTT15=
EXTT16=
PLAYORDER=
